<svg width="256" height="48" viewBox="0 0 256 48" fill="none" xmlns="http://www.w3.org/2000/svg">
<circle cx="232" cy="24" r="23" stroke="#C4C4C4" stroke-width="2"/>
<circle cx="232" cy="24" r="20" fill="#C4C4C4"/>
<path d="M237.94 17.9412C238.222 17.673 238.597 17.5247 238.986 17.5276C239.375 17.5306 239.748 17.6845 240.025 17.957C240.303 18.2294 240.464 18.5991 240.474 18.9879C240.484 19.3768 240.343 19.7544 240.08 20.0412L232.1 30.0212C231.963 30.169 231.797 30.2876 231.613 30.3699C231.429 30.4523 231.23 30.4966 231.029 30.5003C230.827 30.5041 230.627 30.4671 230.44 30.3917C230.253 30.3162 230.083 30.2038 229.94 30.0612L224.648 24.7692C224.501 24.6319 224.383 24.4663 224.301 24.2823C224.219 24.0983 224.175 23.8996 224.171 23.6982C224.168 23.4968 224.205 23.2968 224.28 23.11C224.356 22.9232 224.468 22.7536 224.61 22.6111C224.753 22.4687 224.922 22.3564 225.109 22.2809C225.296 22.2055 225.496 22.1685 225.697 22.172C225.899 22.1756 226.097 22.2196 226.281 22.3016C226.465 22.3836 226.631 22.5018 226.768 22.6492L230.956 26.8352L237.902 17.9852C237.915 17.9698 237.928 17.9551 237.942 17.9412H237.94Z" fill="white"/>
<line x1="152" y1="23" x2="208" y2="23" stroke="#C4C4C4" stroke-width="2"/>
<circle cx="128" cy="24" r="23" stroke="#C4C4C4" stroke-width="2"/>
<circle cx="128" cy="24" r="20" fill="#C4C4C4"/>
<path d="M133.94 17.9412C134.222 17.673 134.597 17.5247 134.986 17.5276C135.375 17.5306 135.748 17.6845 136.025 17.957C136.303 18.2294 136.464 18.5991 136.474 18.9879C136.484 19.3768 136.343 19.7544 136.08 20.0412L128.1 30.0212C127.963 30.169 127.797 30.2876 127.613 30.3699C127.429 30.4523 127.23 30.4966 127.029 30.5003C126.827 30.5041 126.627 30.4671 126.44 30.3917C126.253 30.3162 126.083 30.2038 125.94 30.0612L120.648 24.7692C120.501 24.6319 120.383 24.4663 120.301 24.2823C120.219 24.0983 120.175 23.8996 120.171 23.6982C120.168 23.4968 120.205 23.2968 120.28 23.11C120.356 22.9232 120.468 22.7536 120.61 22.6111C120.753 22.4687 120.922 22.3564 121.109 22.2809C121.296 22.2055 121.496 22.1685 121.697 22.172C121.899 22.1756 122.097 22.2196 122.281 22.3016C122.465 22.3836 122.631 22.5018 122.768 22.6492L126.956 26.8352L133.902 17.9852C133.915 17.9698 133.928 17.9551 133.942 17.9412H133.94Z" fill="white"/>
<line x1="48" y1="23" x2="104" y2="23" stroke="#C4C4C4" stroke-width="2"/>
<circle cx="24" cy="24" r="24" fill="#02BB36"/>
<path d="M29.9403 17.9412C30.2221 17.673 30.597 17.5247 30.986 17.5276C31.3749 17.5306 31.7476 17.6845 32.0252 17.957C32.3029 18.2294 32.4638 18.5991 32.4741 18.9879C32.4844 19.3768 32.3432 19.7544 32.0803 20.0412L24.1003 30.0212C23.9631 30.169 23.7975 30.2876 23.6134 30.3699C23.4293 30.4523 23.2305 30.4966 23.0288 30.5003C22.8272 30.5041 22.6269 30.4671 22.4398 30.3917C22.2528 30.3162 22.0829 30.2038 21.9403 30.0612L16.6483 24.7692C16.5009 24.6319 16.3827 24.4663 16.3008 24.2823C16.2188 24.0983 16.1747 23.8996 16.1711 23.6982C16.1676 23.4968 16.2046 23.2968 16.2801 23.11C16.3555 22.9232 16.4678 22.7536 16.6102 22.6111C16.7527 22.4687 16.9223 22.3564 17.1091 22.2809C17.2959 22.2055 17.496 22.1685 17.6974 22.172C17.8988 22.1756 18.0974 22.2196 18.2814 22.3016C18.4654 22.3836 18.631 22.5018 18.7683 22.6492L22.9563 26.8352L29.9023 17.9852C29.9148 17.9698 29.9282 17.9551 29.9423 17.9412H29.9403Z" fill="white"/>
</svg>
